<svg width="1440" height="900" viewBox="0 0 1440 900" fill="none" xmlns="http://www.w3.org/2000/svg">
    <path d="M1358.8 -206.478L1714.01 285.342C1714.01 285.342 1492.91 460.207 1447.71 403.096C1402.51 345.984 1511.09 277.678 1315 306.799C1118.9 335.92 1061.88 240.574 1137.8 168.044C1213.72 95.5146 1305.77 80.8571 1240.01 33.5394C1174.26 -13.7783 1163.94 -142.852 1358.8 -206.478Z" fill="#C3ACFA" fill-opacity="0.5"/>
    <path d="M1542.45 47.6962L1543.55 49.4313C1390.44 154.126 1279.29 203.719 1213.02 226.886C1141.06 252.042 1104.82 252.377 1104.46 252.377L1105.6 249.873C1105.95 249.872 1141.82 249.511 1213.27 224.503C1279.25 201.413 1389.92 151.996 1542.45 47.6962Z" fill="#F2F2F2"/>
    <path d="M1658.24 207.748L1659.08 209.653C1580.99 256.137 1532.55 309.03 1505.67 345.215C1476.57 384.395 1465.8 412.893 1465.7 413.177L1463 413.38C1463.1 413.092 1474.03 384.155 1503.45 344.556C1530.58 308.031 1579.46 254.647 1658.24 207.748Z" fill="#F2F2F2"/>
    <path d="M1314.06 -275.734L1755.8 335.883L1752.67 338.36C1744.87 344.524 1560.68 489.43 1464.5 498.958C1442.99 501.088 1427.39 496.221 1418.1 484.491C1398.42 459.638 1401.78 432.655 1404.44 410.935C1409.44 369.992 1412.75 342.944 1256.48 366.151C1087.19 391.292 1010.95 341.563 997.091 291.328C988.139 258.87 1002.32 221.799 1036 189.621C1067.89 159.153 1102.3 136.671 1129.94 118.606C1159.52 99.2783 1182.89 84.0117 1187.69 69.0877C1191.7 56.6327 1183.42 43.5306 1161.64 27.8584C1117.33 -4.02377 1086.99 -71.2446 1125.07 -143.49C1145.56 -182.358 1194.57 -236.717 1311.69 -274.962L1314.06 -275.734ZM1745.84 336.722L1309.1 -267.968C1220.8 -238.732 1159.54 -195.566 1131.86 -143.043C1096.92 -76.7689 1123.47 -9.83608 1167.76 22.0283C1191.42 39.0562 1199.84 53.3092 1195.04 68.2285C1189.16 86.4731 1164.22 102.771 1132.64 123.405C1105.45 141.17 1071.62 163.28 1040.6 192.912C1009.37 222.751 996.241 257.22 1004.59 287.482C1017.99 336.123 1092.51 384.169 1258.35 359.542C1421.02 335.384 1417.26 366.218 1412.04 408.89C1409.36 430.878 1406.32 455.832 1424.95 479.355C1433.27 489.869 1447.35 494.222 1466.79 492.297C1553.23 483.735 1720.81 356.124 1745.84 336.722Z" fill="#CFCCE0"/>
    <path d="M-375.728 1156.28L-426.968 551.767C-426.968 551.767 -138.495 514.974 -129.06 587.196C-119.624 659.419 -251.913 662.404 -63.2647 737.949C125.384 813.493 124.862 924.614 19.1514 947.972C-86.5588 971.331 -175.645 936.715 -142.834 1011.07C-110.024 1085.42 -169.764 1201.56 -375.728 1156.28Z" fill="#C3ACFA" fill-opacity="0.5"/>
    <path d="M-402.279 843.828L-402.32 841.776C-211.305 830.378 -86.7337 844.779 -15.8693 858.867C61.0766 874.163 93.2519 892.46 93.5684 892.644L91.2248 894.209C90.9118 894.029 59.0591 875.949 -17.3637 860.783C-87.9263 846.781 -211.983 832.473 -402.279 843.828Z" fill="#F2F2F2"/>
    <path d="M-373.175 1238.7L-436.896 486.938L-432.808 486.416C-422.64 485.119 -182.736 455.126 -92.7421 496.264C-72.6243 505.46 -61.4408 517.644 -59.5039 532.477C-55.3826 563.915 -72.7449 585.362 -86.6741 602.655C-112.933 635.249 -130.282 656.782 20.0523 716.983C182.912 782.199 223.694 864.002 209.132 914.249C199.72 946.715 167.426 971.278 120.529 981.642C76.1218 991.455 33.7553 993.119 -0.286731 994.457C-36.7103 995.887 -65.4802 997.018 -77.684 1007.37C-87.8663 1016.01 -87.546 1031.51 -76.6733 1056.14C-54.5667 1106.24 -63.6371 1179.53 -135.794 1222.04C-174.614 1244.92 -246.877 1266.47 -370.679 1239.25L-373.175 1238.7ZM-427.659 491.322L-364.66 1234.57C-271.111 1254.74 -194.006 1249.09 -141.548 1218.18C-75.3546 1179.17 -63.0874 1108.08 -85.1853 1058.01C-96.9961 1031.25 -96.824 1014.69 -84.6242 1004.34C-69.7069 991.686 -38.9932 990.48 -0.108406 988.952C33.3707 987.638 75.036 986.001 118.224 976.458C161.713 966.848 191.688 943.977 200.461 913.708C214.575 865.063 174.417 785.589 14.8768 721.7C-141.618 659.032 -121.848 634.482 -94.481 600.51C-80.3816 583.004 -64.3921 563.129 -68.2881 533.377C-70.0254 520.081 -80.1287 509.125 -98.317 500.81C-179.196 463.837 -395.207 487.498 -427.659 491.322Z" fill="#CFCCE0"/>
</svg>
