<svg width="239" height="829" viewBox="0 0 239 829" fill="none" xmlns="http://www.w3.org/2000/svg">
    <path d="M-375.728 722.285L-426.968 117.767C-426.968 117.767 -138.495 80.974 -129.06 153.196C-119.624 225.419 -251.913 228.404 -63.2647 303.949C125.384 379.493 124.862 490.614 19.1514 513.972C-86.5588 537.331 -175.645 502.715 -142.834 577.07C-110.024 651.425 -169.764 767.564 -375.728 722.285Z" fill="#C3ACFA" fill-opacity="0.5"/>
    <path d="M-402.279 409.827L-402.32 407.776C-211.305 396.377 -86.7337 410.779 -15.8693 424.867C61.0766 440.163 93.2519 458.46 93.5684 458.643L91.2248 460.209C90.9118 460.028 59.0591 441.949 -17.3637 426.783C-87.9263 412.78 -211.983 398.472 -402.279 409.827Z" fill="#F2F2F2"/>
    <path d="M-373.175 804.702L-436.896 52.9376L-432.808 52.4165C-422.64 51.1193 -182.736 21.1257 -92.7421 62.2636C-72.6243 71.46 -61.4408 83.644 -59.5039 98.4767C-55.3826 129.915 -72.7449 151.362 -86.6741 168.655C-112.933 201.249 -130.282 222.782 20.0523 282.983C182.912 348.199 223.694 430.002 209.132 480.249C199.72 512.715 167.426 537.278 120.529 547.642C76.1218 557.455 33.7553 559.119 -0.286731 560.457C-36.7103 561.887 -65.4802 563.018 -77.684 573.37C-87.8663 582.01 -87.546 597.508 -76.6733 622.138C-54.5667 672.237 -63.6371 745.525 -135.794 788.041C-174.614 810.915 -246.877 832.467 -370.679 805.251L-373.175 804.702ZM-427.659 57.322L-364.66 800.573C-271.111 820.745 -194.006 815.086 -141.548 784.177C-75.3546 745.175 -63.0874 674.081 -85.1853 624.007C-96.9961 597.248 -96.824 580.691 -84.6242 570.342C-69.7069 557.686 -38.9932 556.48 -0.108406 554.952C33.3707 553.638 75.036 552.001 118.224 542.458C161.713 532.848 191.688 509.977 200.461 479.708C214.575 431.063 174.417 351.589 14.8768 287.7C-141.618 225.032 -121.848 200.482 -94.481 166.51C-80.3816 149.004 -64.3921 129.129 -68.2881 99.3773C-70.0254 86.0809 -80.1287 75.1246 -98.317 66.81C-179.196 29.837 -395.207 53.4978 -427.659 57.322Z" fill="#CFCCE0"/>
</svg>
