<svg width="621" height="685" viewBox="0 0 621 685" fill="none" xmlns="http://www.w3.org/2000/svg">
    <path d="M539.795 -206.478L895.014 285.342C895.014 285.342 673.908 460.207 628.711 403.095C583.514 345.984 692.09 277.678 495.996 306.798C299.901 335.919 242.881 240.574 318.798 168.044C394.716 95.5141 486.771 80.8566 421.014 33.5389C355.256 -13.7788 344.935 -142.853 539.795 -206.478Z" fill="#C3ACFA" fill-opacity="0.5"/>
    <path d="M723.453 47.6962L724.548 49.4313C571.436 154.126 460.295 203.719 394.022 226.886C322.062 252.042 285.818 252.377 285.46 252.377L286.601 249.873C286.955 249.872 322.818 249.511 394.275 224.503C460.253 201.413 570.918 151.996 723.453 47.6962Z" fill="#F2F2F2"/>
    <path d="M839.244 207.747L840.076 209.652C761.986 256.136 713.553 309.029 686.674 345.214C657.571 384.394 646.803 412.892 646.698 413.176L643.995 413.379C644.102 413.091 655.035 384.154 684.45 344.555C711.581 308.03 760.459 254.646 839.244 207.747Z" fill="#F2F2F2"/>
    <path d="M495.056 -275.734L936.799 335.882L933.665 338.36C925.872 344.524 741.679 489.43 645.496 498.958C623.995 501.088 608.386 496.22 599.104 484.491C579.418 459.638 582.782 432.655 585.435 410.934C590.441 369.992 593.749 342.943 437.481 366.15C268.194 391.292 191.95 341.563 178.091 291.328C169.139 258.869 183.321 221.799 217 189.621C248.892 159.152 283.298 136.67 310.944 118.606C340.524 99.2778 363.888 84.0112 368.694 69.0872C372.702 56.6322 364.423 43.5301 342.637 27.858C298.331 -4.02425 267.988 -71.2451 306.07 -143.49C326.557 -182.359 375.567 -236.718 492.694 -274.963L495.056 -275.734ZM926.843 336.721L490.103 -267.969C401.801 -238.732 340.543 -195.567 312.858 -143.044C277.923 -76.7694 304.471 -9.83657 348.756 22.0278C372.424 39.0557 380.841 53.3087 376.037 68.228C370.163 86.4727 345.22 102.771 313.642 123.405C286.453 141.17 252.616 163.28 221.6 192.911C190.367 222.75 177.241 257.22 185.588 287.481C198.992 336.122 273.513 384.168 439.351 359.542C602.022 335.384 598.259 366.218 593.043 408.889C590.358 430.877 587.324 455.831 605.951 479.354C614.272 489.868 628.347 494.222 647.786 492.297C734.229 483.735 901.806 356.124 926.843 336.721Z" fill="#CFCCE0"/>
</svg>
