<svg width="1440" height="685" viewBox="0 0 1440 685" fill="none" xmlns="http://www.w3.org/2000/svg">
    <path d="M1358.79 -206.478L1714.01 285.342C1714.01 285.342 1492.91 460.207 1447.71 403.096C1402.51 345.984 1511.09 277.678 1314.99 306.799C1118.9 335.919 1061.88 240.574 1137.8 168.044C1213.71 95.5143 1305.77 80.8569 1240.01 33.5391C1174.26 -13.7786 1163.93 -142.853 1358.79 -206.478Z" fill="#C3ACFA" fill-opacity="0.5"/>
    <path d="M1542.45 47.6959L1543.55 49.4311C1390.44 154.126 1279.29 203.719 1213.02 226.886C1141.06 252.041 1104.82 252.377 1104.46 252.377L1105.6 249.873C1105.95 249.872 1141.82 249.51 1213.27 224.503C1279.25 201.413 1389.92 151.996 1542.45 47.6959Z" fill="#F2F2F2"/>
    <path d="M1658.24 207.748L1659.07 209.652C1580.99 256.137 1532.55 309.029 1505.67 345.215C1476.57 384.395 1465.8 412.893 1465.7 413.177L1462.99 413.379C1463.1 413.092 1474.03 384.155 1503.45 344.555C1530.58 308.031 1579.46 254.647 1658.24 207.748Z" fill="#F2F2F2"/>
    <path d="M1314.06 -275.734L1755.8 335.882L1752.66 338.36C1744.87 344.524 1560.68 489.43 1464.5 498.958C1442.99 501.088 1427.38 496.221 1418.1 484.491C1398.42 459.638 1401.78 432.655 1404.43 410.935C1409.44 369.992 1412.75 342.944 1256.48 366.151C1087.19 391.292 1010.95 341.563 997.09 291.328C988.138 258.869 1002.32 221.799 1036 189.621C1067.89 159.152 1102.3 136.671 1129.94 118.606C1159.52 99.278 1182.89 84.0114 1187.69 69.0875C1191.7 56.6324 1183.42 43.5303 1161.64 27.8582C1117.33 -4.02402 1086.99 -71.2449 1125.07 -143.49C1145.56 -182.359 1194.57 -236.718 1311.69 -274.963L1314.06 -275.734ZM1745.84 336.721L1309.1 -267.968C1220.8 -238.732 1159.54 -195.566 1131.86 -143.044C1096.92 -76.7692 1123.47 -9.83633 1167.76 22.0281C1191.42 39.056 1199.84 53.309 1195.04 68.2283C1189.16 86.4729 1164.22 102.771 1132.64 123.405C1105.45 141.17 1071.61 163.28 1040.6 192.911C1009.37 222.75 996.24 257.22 1004.59 287.481C1017.99 336.122 1092.51 384.169 1258.35 359.542C1421.02 335.384 1417.26 366.218 1412.04 408.89C1409.36 430.877 1406.32 455.832 1424.95 479.354C1433.27 489.869 1447.35 494.222 1466.79 492.297C1553.23 483.735 1720.8 356.124 1745.84 336.721Z" fill="#CFCCE0"/>
    <path d="M-367.106 102.987L96.2818 -288.598C96.2818 -288.598 293.21 -74.6131 239.766 -25.1274C186.322 24.3582 107.341 -81.8073 154.886 115.765C202.431 313.336 111.501 377.209 31.2823 304.509C-48.9365 231.81 -72.2523 139.121 -113.91 208.906C-155.567 278.69 -284.857 297.169 -367.106 102.987Z" fill="#C3ACFA" fill-opacity="0.5"/>
    <path d="M-127.633 -99.4658L-125.984 -100.686C-6.15881 48.5079 54.177 158.439 83.6916 224.387C115.74 295.994 119.435 332.823 119.468 333.187L116.835 332.182C116.801 331.822 113.116 295.382 81.2638 224.277C51.8542 158.625 -8.25999 49.1669 -127.633 -99.4658Z" fill="#F2F2F2"/>
    <path d="M-432.847 152.759L143.411 -334.208L146.202 -331.176C153.143 -323.633 316.423 -145.326 334.945 -48.1243C339.085 -26.3951 335.619 -10.2239 324.643 -0.061512C301.387 21.491 273.848 19.7409 251.684 18.3866C209.907 15.8304 182.306 14.1404 220.196 171.585C261.243 342.148 218.123 422.743 168.716 439.941C136.792 451.051 98.0715 438.926 62.4826 406.674C28.7839 376.134 2.91179 342.543 -17.8771 315.553C-40.1199 286.674 -57.6888 263.864 -73.1933 259.901C-86.1326 256.596 -98.5869 265.825 -112.384 288.944C-140.452 335.963 -205.473 370.972 -281.901 336.723C-323.019 318.298 -382.411 271.832 -431.85 155.113L-432.847 152.759ZM145.18 -324.138L-424.552 157.315C-386.873 245.284 -337.642 304.896 -282.079 329.795C-211.968 361.213 -146.886 330.08 -118.833 283.084C-103.843 257.967 -90.24 248.527 -74.7403 252.489C-55.7862 257.332 -37.0304 281.683 -13.2842 312.513C7.15977 339.058 32.6039 372.092 65.3769 401.794C98.3792 431.703 134.377 442.915 164.14 432.556C211.981 415.919 253.562 337.181 213.354 170.093C173.912 6.19623 205.374 8.11505 248.916 10.7783C271.352 12.148 296.814 13.6886 318.825 -6.70457C328.664 -15.8153 331.754 -30.3951 328.011 -50.0404C311.366 -137.398 167.077 -299.883 145.18 -324.138Z" fill="#CFCCE0"/>
</svg>
